<svg xmlns="http://www.w3.org/2000/svg" viewBox="0 0 100 100" fill="none" stroke="#e6c46a" stroke-width="1.4" stroke-linecap="round" stroke-linejoin="round">
  <!-- двойная рамка -->
  <rect x="6" y="6" width="88" height="88" rx="4"/>
  <rect x="10.5" y="10.5" width="79" height="79" rx="3" stroke-width="0.8" opacity="0.55"/>
  <!-- угловые завитки (по всем 4 углам) -->
  <g stroke-width="1.4">
    <!-- TL -->
    <path d="M6 20c0-8 6-14 14-14"/><path d="M14 6c-4 6-8 8-8 8"/><circle cx="9" cy="9" r="1.6" fill="#f2d98c" stroke="none"/>
    <!-- TR -->
    <path d="M94 20c0-8-6-14-14-14"/><path d="M86 6c4 6 8 8 8 8"/><circle cx="91" cy="9" r="1.6" fill="#f2d98c" stroke="none"/>
    <!-- BL -->
    <path d="M6 80c0 8 6 14 14 14"/><path d="M14 94c-4-6-8-8-8-8"/><circle cx="9" cy="91" r="1.6" fill="#f2d98c" stroke="none"/>
    <!-- BR -->
    <path d="M94 80c0 8-6 14-14 14"/><path d="M86 94c4-6 8-8 8-8"/><circle cx="91" cy="91" r="1.6" fill="#f2d98c" stroke="none"/>
  </g>
  <!-- серединные «жемчужины» на гранях -->
  <circle cx="50" cy="6" r="1.5" fill="#f2d98c" stroke="none"/>
  <circle cx="50" cy="94" r="1.5" fill="#f2d98c" stroke="none"/>
  <circle cx="6" cy="50" r="1.5" fill="#f2d98c" stroke="none"/>
  <circle cx="94" cy="50" r="1.5" fill="#f2d98c" stroke="none"/>
</svg>
