<svg xmlns="http://www.w3.org/2000/svg" viewBox="0 0 680 340" fill="#e0bd66">
  <g transform="translate(30,70) scale(0.52)"><path d="M28.375 21.72c6.463 186.873 211.64 185.96 332.47 279.624-78.192-33.86-206.354-26.42-299.126-86.594 43.276 140.637 197.64 94.335 311 132.563-67.51-6.592-156.55 31.527-240.72 1.375 74.328 117.156 170.745 38.902 264.156 39.593-47.114 12.005-95.76 64.52-160.812 59.595 79.27 76.296 120.778 2.205 177.562-26.188-.07.084-.15.166-.22.25a28.84 28.84 0 0 1 7.19-2.625 28.887 28.887 0 0 1 5.78-.687c13.36-.206 25.476 9.006 28.47 22.563a28.619 28.619 0 0 1-1.532 17.218 23.044 23.044 0 0 0-.313-1.812c-2.682-12.156-14.718-19.84-26.874-17.156-12.156 2.683-19.84 14.72-17.156 26.875a22.5 22.5 0 0 0 1.656 4.78c-.185-.126-.38-.244-.562-.374.558.9 1.158 1.77 1.78 2.624a22.55 22.55 0 0 0 4.407 5.156c7.127 7.04 16.797 11.55 27.595 12.03 23.13 1.032 42.72-16.9 43.75-40.03.837-18.794-10.812-35.25-27.625-41.313-.01-.003-.022.004-.03 0-9.58-5.346-17.946-11.836-25-19.062 16.04 7.166 35.522 3.674 48.03-10 15.627-17.084 14.46-43.592-2.625-59.22-9.736-8.904-22.52-12.34-34.625-10.5-3.198.18-6.39 1.124-9.28 2.97-8.988 5.736-11.612 17.67-5.876 26.656 5.736 8.988 17.67 11.612 26.656 5.876 4.744-3.028 7.687-7.768 8.594-12.906 2.496 11.418-2.164 23.686-12.594 30.344-13.374 8.536-31.15 4.623-39.688-8.75a28.535 28.535 0 0 1-4.437-13.72c-.002-.03-.03-.062-.03-.093a68.489 68.489 0 0 1-.75-6.405c-9.925-146.86-254.66-165.998-379.22-312.656z"/></g>
  <g transform="translate(650,70) scale(-0.52,0.52)"><path d="M28.375 21.72c6.463 186.873 211.64 185.96 332.47 279.624-78.192-33.86-206.354-26.42-299.126-86.594 43.276 140.637 197.64 94.335 311 132.563-67.51-6.592-156.55 31.527-240.72 1.375 74.328 117.156 170.745 38.902 264.156 39.593-47.114 12.005-95.76 64.52-160.812 59.595 79.27 76.296 120.778 2.205 177.562-26.188-.07.084-.15.166-.22.25a28.84 28.84 0 0 1 7.19-2.625 28.887 28.887 0 0 1 5.78-.687c13.36-.206 25.476 9.006 28.47 22.563a28.619 28.619 0 0 1-1.532 17.218 23.044 23.044 0 0 0-.313-1.812c-2.682-12.156-14.718-19.84-26.874-17.156-12.156 2.683-19.84 14.72-17.156 26.875a22.5 22.5 0 0 0 1.656 4.78c-.185-.126-.38-.244-.562-.374.558.9 1.158 1.77 1.78 2.624a22.55 22.55 0 0 0 4.407 5.156c7.127 7.04 16.797 11.55 27.595 12.03 23.13 1.032 42.72-16.9 43.75-40.03.837-18.794-10.812-35.25-27.625-41.313-.01-.003-.022.004-.03 0-9.58-5.346-17.946-11.836-25-19.062 16.04 7.166 35.522 3.674 48.03-10 15.627-17.084 14.46-43.592-2.625-59.22-9.736-8.904-22.52-12.34-34.625-10.5-3.198.18-6.39 1.124-9.28 2.97-8.988 5.736-11.612 17.67-5.876 26.656 5.736 8.988 17.67 11.612 26.656 5.876 4.744-3.028 7.687-7.768 8.594-12.906 2.496 11.418-2.164 23.686-12.594 30.344-13.374 8.536-31.15 4.623-39.688-8.75a28.535 28.535 0 0 1-4.437-13.72c-.002-.03-.03-.062-.03-.093a68.489 68.489 0 0 1-.75-6.405c-9.925-146.86-254.66-165.998-379.22-312.656z"/></g>
  <g transform="translate(250,86) scale(0.36)"><path d="M320.063 19.72c-72.258 14.575-19.248 71.693-74.344 108.81 4.846-.49 9.746-.702 14.655-.624 16.288.26 32.785 3.72 48.594 10.72a126.431 126.431 0 0 1 14.25 7.405c12.107-47.476-37.103-96.38-3.158-126.31zM136.75 44.47c-40.76 61.357 36.984 64.33 24.406 129.405 17.407-21.255 41.17-35.9 67.156-42.313-25.006-42.138-94.4-41.924-91.562-87.093zm297.313 75.405c-32.547.872-45.475 46.314-96.594 36.22 21.35 17.42 36.034 41.25 42.467 67.31 42.306-24.92 42.053-94.466 87.282-91.624-13.43-8.92-24.06-12.15-33.158-11.905zm-177.97 26.656c-23.656.46-46.53 8.82-64.906 23.626l18.657 36.156L170 193.156a107.628 107.628 0 0 0-9.406 16.938c-8.726 19.708-11.002 40.59-7.78 60.344l44.78 2.125-34 30.312c10.798 20.622 28.414 37.852 51.406 48.03a107.842 107.842 0 0 0 9.313 3.626l24.53-38.25 9.095 43.814c27.3.075 53.737-10.387 73.593-29.188l-19.186-37.125 38.406 12.658a108.49 108.49 0 0 0 5.03-9.938c9.746-22.01 11.457-45.498 6.44-67.22l-37.626-1.75 27.687-24.718c-10.83-20.194-28.236-37.07-50.874-47.093a107.405 107.405 0 0 0-4.125-1.72l-25.874 40.313-9.906-47.75c-.5-.016-1-.023-1.5-.032-1.3-.02-2.61-.024-3.906 0zM133.407 186.5c-41.652.725-82.483 34.847-108.72 5.094 14.573 72.234 71.664 19.3 108.783 74.312-2.154-20.972.934-42.758 10.06-63.375a126.36 126.36 0 0 1 7.345-14.093c-5.822-1.47-11.642-2.038-17.47-1.937zm249.5 53.97a124.649 124.649 0 0 1-10.03 63.624l-.188.375a126.38 126.38 0 0 1-7.22 13.78c47.524 12.244 96.507-37.137 126.47-3.156-14.603-72.388-71.92-19.04-109.032-74.625zM136.53 283.405c-42.123 25.014-41.928 94.37-87.093 91.53 61.422 40.803 64.322-37.123 129.594-24.342-21.344-17.385-36.03-41.167-42.5-67.188zm219.064 48.906c-17.406 21.46-41.236 36.24-67.344 42.72 24.944 42.263 94.497 42.004 91.656 87.218 40.867-61.52-37.402-64.358-24.312-129.938zM193.406 360.72c-12.047 47.456 37.087 96.33 3.156 126.25 72.305-14.587 19.195-71.79 74.47-108.908-21.04 2.204-42.898-.9-63.594-10.062a126.43 126.43 0 0 1-14.032-7.28z"/></g>
</svg>